<svg t="1709203713020" class="icon" viewBox="0 0 1024 1024" version="1.1" xmlns="http://www.w3.org/2000/svg" p-id="6043" width="32" height="32"><path d="M842.752 487.104c0.064-2.24 0.192-4.48 0.192-6.784 0-151.808-118.528-274.816-264.704-274.816-106.496 0-198.208 65.28-240.256 159.424a123.072 123.072 0 0 0-70.336-22.016c-70.272 0-127.296 59.136-127.296 132.096 0 12.608 1.728 24.832 4.928 36.416A164.736 164.736 0 0 0 64 654.656c0 90.496 70.656 163.84 157.824 163.84h575.296c89.984 0 162.88-75.712 162.88-169.088 0-76.992-49.536-141.824-117.248-162.304z" fill="#FDB25D" p-id="6044"></path></svg>