<svg t="1709135123125" class="icon" viewBox="0 0 1024 1024" version="1.1" xmlns="http://www.w3.org/2000/svg" p-id="5111" width="32" height="32"><path d="M938.304 884.032s-27.84-61.44-125.568-195.072a2859.136 2859.136 0 0 0-91.52-116.8A308.48 308.48 0 0 1 512 654.72a308.864 308.864 0 0 1-209.92-83.136 2891.584 2891.584 0 0 0-92.032 117.44c-97.728 133.696-125.568 195.072-125.568 195.072-16.768 38.208-2.368 75.904 35.456 75.904h782.976c37.824 0 54.912-41.472 35.392-75.968zM512 591.168c140.672 0 254.72-118.016 254.72-263.552C766.72 182.016 652.672 64 512 64S257.28 182.016 257.28 327.552c0 145.6 114.048 263.616 254.72 263.616z" p-id="5112" fill="#2b86b3"></path></svg>