<svg t="1708948397100" class="icon" viewBox="0 0 1024 1024" version="1.1" xmlns="http://www.w3.org/2000/svg" p-id="2992" width="32" height="32"><path d="M810.294 403.888l-39.769 39.769c-10.969 10.969-28.8 10.969-39.769 0l-162.506-162.506v412.256c0 15.525-12.6 28.125-28.125 28.125h-56.25c-15.525 0-28.125-12.6-28.125-28.125v-412.256l-162.506 162.506c-10.969 10.969-28.8 10.969-39.769 0l-39.769-39.769c-10.969-10.969-10.969-28.8 0-39.769l278.438-278.381c10.969-10.969 28.8-10.969 39.769 0l278.438 278.381c10.969 10.969 10.969 28.8-0.056 39.769zM568.25 946.531h-112.5v-112.5h112.5v112.5z" p-id="2993" fill="#FDB25D"></path></svg>