<svg t="1708947864607" class="icon" viewBox="0 0 1024 1024" version="1.1" xmlns="http://www.w3.org/2000/svg" p-id="2406" width="32" height="32"><path d="M937.088 174.976l-69.184-83.648A72.32 72.32 0 0 0 810.688 64H213.312c-23.36 0-43.776 10.432-57.728 27.392L86.912 174.976A97.472 97.472 0 0 0 64 238.208v622.208C64 915.2 108.8 960 163.584 960h696.896C915.2 960 960 915.2 960 860.416V238.208c0-23.872-8.448-46.272-22.912-63.232zM512 787.712L236.288 512h172.288V374.144h206.784V512h172.288L512 787.712zM167.36 167.36l34.432-68.928h620.288l34.432 68.928H167.36z" p-id="2407" fill="#FDB25D"></path></svg>