<svg t="1709707535370" class="icon" viewBox="0 0 1024 1024" version="1.1" xmlns="http://www.w3.org/2000/svg" p-id="2406" width="16" height="16"><path d="M568.25 962l56.25-225h137.531c54.056-59.569 87.469-138.094 87.469-225 0-153.563-102.825-287.156-243.225-328.725-22.95-6.75-38.025-28.688-38.025-52.65v0c0-36.394 34.706-64.406 69.638-54.169 187.2 55.125 324.113 230.738 324.113 435.544 0 227.081-175.163 419.231-393.75 450zM62 512c0-227.025 175.163-419.231 393.75-450l-56.25 225h-137.531c-54.056 59.569-87.469 138.094-87.469 225 0 153.563 102.825 287.156 243.225 328.669 22.95 6.806 38.025 28.744 38.025 52.706v0c0 36.394-34.706 64.406-69.638 54.169-187.2-55.125-324.113-230.738-324.113-435.544z" p-id="2407" fill="#dbdbdb"></path></svg>