<svg t="1709136481732" class="icon" viewBox="0 0 1024 1024" version="1.1" xmlns="http://www.w3.org/2000/svg" p-id="5745" width="32" height="32"><path d="M798.336 964.672a161.664 161.664 0 1 1 0-323.328 161.664 161.664 0 0 1 0 323.328z m79.68-190.848l-43.84-6.72a10.112 10.112 0 0 1-7.424-5.632l-19.584-41.792a9.6 9.6 0 0 0-17.6 0l-19.584 41.792a9.728 9.728 0 0 1-7.424 5.632l-43.84 6.72c-8.064 1.216-11.264 11.648-5.44 17.6l31.744 32.512a10.624 10.624 0 0 1 2.816 9.152l-7.488 45.888c-1.408 8.448 7.04 14.912 14.272 10.88l39.232-21.696a9.344 9.344 0 0 1 9.152 0l39.232 21.696c7.232 3.968 15.616-2.432 14.272-10.88l-7.488-45.888a10.624 10.624 0 0 1 2.816-9.152l31.744-32.512c5.696-5.952 2.496-16.32-5.568-17.6z m-267.2 29.184c0 41.088 13.376 79.04 35.84 109.952H104c-35.712 0-49.344-35.904-33.472-72.32 0 0 26.304-58.496 118.592-185.856 28.032-38.016 57.024-75.328 86.912-111.872A290.24 290.24 0 0 0 474.304 622.08a289.856 289.856 0 0 0 197.568-78.656c22.144 27.072 43.648 54.72 64.768 82.624a187.52 187.52 0 0 0-125.824 176.96zM474.304 561.536c-132.864 0-240.576-112.448-240.576-251.136 0-138.624 107.712-251.072 240.576-251.072s240.576 112.448 240.576 251.136-107.712 251.072-240.576 251.072z" p-id="5746" fill="#dc6bff"></path></svg>