<svg t="1709043012418" class="icon" viewBox="0 0 1024 1024" version="1.1" xmlns="http://www.w3.org/2000/svg" p-id="8574" id="mx_n_1709043012419" width="16" height="16"><path d="M274.944 157.248a426.688 426.688 0 0 1 538.752 656.448 42.688 42.688 0 1 1-60.352-60.352 341.376 341.376 0 1 0-482.688 0 42.688 42.688 0 1 1-60.352 60.352 426.624 426.624 0 0 1 64.64-656.448z" p-id="8575" fill="#bfbfbf"></path><path d="M369.792 299.136a256 256 0 0 1 323.2 393.856 42.688 42.688 0 1 1-60.288-60.288 170.624 170.624 0 1 0-241.408 0 42.688 42.688 0 1 1-60.288 60.288 256 256 0 0 1 38.784-393.856z" p-id="8576" fill="#bfbfbf"></path><path d="M512 426.688a85.312 85.312 0 1 0 0 170.624 85.312 85.312 0 0 0 0-170.624z" p-id="8577" fill="#bfbfbf"></path></svg>